HIERARCHY
ROOT Hips
{
	OFFSET 0.000000 0.000000 0.000000
	CHANNELS 6 Xposition Yposition Zposition Xrotation Yrotation Zrotation
	JOINT LeftUpLeg_virtual
	{
		OFFSET 0.000000 0.000000 0.000000
		CHANNELS 3 Xrotation Yrotation Zrotation
		JOINT LeftUpLeg
		{
			OFFSET 13.026900 -6.336304 -1.092800
			CHANNELS 3 Xrotation Yrotation Zrotation
			JOINT LeftLeg
			{
				OFFSET 0.524474 -46.096886 9.782700
				CHANNELS 3 Xrotation Yrotation Zrotation
				JOINT LeftFoot
				{
					OFFSET -0.524474 -53.427422 -12.948200
					CHANNELS 3 Xrotation Yrotation Zrotation
					JOINT LeftToeBase
					{
						OFFSET 0.192200 -14.009700 16.364100
						CHANNELS 3 Xrotation Yrotation Zrotation
						JOINT LeftToe_End
						{
							OFFSET -1.784700 -0.561700 9.474800
							CHANNELS 3 Xrotation Yrotation Zrotation
							End Site
							{
								OFFSET 0 0 0
							}
						}
					}
				}
			}
		}
	}
	JOINT RightUpLeg_virtual
	{
		OFFSET 0.000000 0.000000 0.000000
		CHANNELS 3 Xrotation Yrotation Zrotation
		JOINT RightUpLeg
		{
			OFFSET -12.883000 -6.336304 -1.092800
			CHANNELS 3 Xrotation Yrotation Zrotation
			JOINT RightLeg
			{
				OFFSET -0.524587 -46.096825 9.782800
				CHANNELS 3 Xrotation Yrotation Zrotation
				JOINT RightFoot
				{
					OFFSET 0.524587 -53.427383 -12.948300
					CHANNELS 3 Xrotation Yrotation Zrotation
					JOINT RightToeBase
					{
						OFFSET -0.192200 -14.009700 16.364100
						CHANNELS 3 Xrotation Yrotation Zrotation
						JOINT RightToe_End
						{
							OFFSET 1.784700 -0.561700 9.474800
							CHANNELS 3 Xrotation Yrotation Zrotation
							End Site
							{
								OFFSET 0 0 0
							}
						}
					}
				}
			}
		}
	}
	JOINT Spine_virtual
	{
		OFFSET 0.000000 0.000000 0.000000
		CHANNELS 3 Xrotation Yrotation Zrotation
		JOINT Spine
		{
			OFFSET 0.072000 7.257294 -0.789700
			CHANNELS 3 Xrotation Yrotation Zrotation
			JOINT Spine1
			{
				OFFSET 0.000000 12.508769 -0.658067
				CHANNELS 3 Xrotation Yrotation Zrotation
				JOINT Spine1_split
				{
					OFFSET 0.000000 12.508769 -0.658067
					CHANNELS 3 Xrotation Yrotation Zrotation
					JOINT Spine2
					{
						OFFSET 0.000000 12.508769 -0.658067
						CHANNELS 3 Xrotation Yrotation Zrotation
						JOINT Neck_virtual
						{
							OFFSET 0.000000 0.000000 0.000000
							CHANNELS 3 Xrotation Yrotation Zrotation
							JOINT Neck
							{
								OFFSET 0.000000 14.033295 7.520400
								CHANNELS 3 Xrotation Yrotation Zrotation
								JOINT Head
								{
									OFFSET 0.000000 8.198502 5.703100
									CHANNELS 3 Xrotation Yrotation Zrotation
									JOINT HeadTop_End
									{
										OFFSET 0.000000 17.760803 13.332701
										CHANNELS 3 Xrotation Yrotation Zrotation
										End Site
										{
											OFFSET 0 0 0
										}
									}
								}
							}
						}
						JOINT LeftShoulder_virtual
						{
							OFFSET 0.000000 0.000000 0.000000
							CHANNELS 3 Xrotation Yrotation Zrotation
							JOINT LeftShoulder
							{
								OFFSET 6.292450 5.785301 -0.669000
								CHANNELS 3 Xrotation Yrotation Zrotation
								JOINT LeftShoulder_split
								{
									OFFSET 6.292450 5.785301 -0.669000
									CHANNELS 3 Xrotation Yrotation Zrotation
									JOINT LeftArm
									{
										OFFSET 13.907140 -6.093903 1.965100
										CHANNELS 3 Xrotation Yrotation Zrotation
										JOINT LeftForeArm
										{
											OFFSET 34.140198 0.000000 0.000000
											CHANNELS 3 Xrotation Yrotation Zrotation
											JOINT LeftHand
											{
												OFFSET 40.960209 0.000000 0.000000
												CHANNELS 3 Xrotation Yrotation Zrotation
												End Site
												{
													OFFSET 0 0 0
												}
											}
										}
									}
								}
							}
						}
						JOINT RightShoulder_virtual
						{
							OFFSET 0.000000 0.000000 0.000000
							CHANNELS 3 Xrotation Yrotation Zrotation
							JOINT RightShoulder
							{
								OFFSET -6.292450 5.785301 -0.669000
								CHANNELS 3 Xrotation Yrotation Zrotation
								JOINT RightShoulder_split
								{
									OFFSET -6.292450 5.785301 -0.669000
									CHANNELS 3 Xrotation Yrotation Zrotation
									JOINT RightArm
									{
										OFFSET -13.907140 -6.093903 1.965100
										CHANNELS 3 Xrotation Yrotation Zrotation
										JOINT RightForeArm
										{
											OFFSET -34.140198 0.000000 0.000000
											CHANNELS 3 Xrotation Yrotation Zrotation
											JOINT RightHand
											{
												OFFSET -40.960209 0.000000 0.000000
												CHANNELS 3 Xrotation Yrotation Zrotation
												End Site
												{
													OFFSET 0 0 0
												}
											}
										}
									}
								}
							}
						}
					}
				}
			}
		}
	}
}
MOTION
Frames: 11
Frame Time: 0.03333333
-12.248921 147.499191 1.967625 0.000000 0.000000 0.000000 -18.543450 5.417602 2.570628 -85.781145 16.944595 22.509215 98.257059 -11.665492 4.612843 -3.674265 9.001771 8.733278 8.131065 -1.171589 -2.525770 0.000000 0.000000 0.000000 -18.319547 -1.137917 1.134073 -87.144232 -3.549931 -8.156716 94.612279 -4.547897 1.518913 -8.826178 3.293246 19.078457 -15.511732 -1.848036 -22.377318 0.000000 0.000000 0.000000 -9.552756 0.230444 -0.909207 -2.137583 9.069885 5.716318 18.384911 1.170733 1.661837 -0.002929 -1.184085 0.156715 0.000000 0.000000 0.000000 19.239873 3.100707 1.385691 3.879276 11.286756 -5.842674 1.130987 -44.613918 -8.687014 0.000000 0.000000 0.000000 24.489700 0.881845 3.504943 -1.976413 -2.037527 22.755557 -1.555552 1.403978 -5.767022 -39.957559 -41.624815 15.470915 -22.616918 -5.910807 -15.032386 0.000000 0.000000 0.000000 21.613683 1.204981 2.914542 0.237281 19.714870 -32.267241 2.619272 -3.637929 5.063772 -39.394707 18.243276 -16.048405 -44.139029 42.338222 32.607651 0.000000 0.000000 0.000000 
-11.144355 146.346039 1.625065 0.000000 0.000000 0.000000 -18.445290 5.322722 2.724312 -86.118345 15.801187 22.040646 96.806382 -12.084398 3.840788 -3.256935 8.050182 7.476187 7.924523 -1.074759 -2.505610 0.000000 0.000000 0.000000 -19.018370 -0.347366 1.395481 -87.000013 -3.875069 -10.138884 94.430220 -5.295873 2.309175 -11.126505 3.031054 16.620202 -13.361675 -2.033444 -22.786618 0.000000 0.000000 0.000000 -11.042301 -0.084499 -1.029965 -2.102576 8.941647 5.900285 18.542843 0.952718 1.628175 0.129102 -0.677022 0.185048 0.000000 0.000000 0.000000 19.154478 2.817023 1.497559 4.259237 11.020394 -5.227863 0.395911 -43.874222 -7.930259 0.000000 0.000000 0.000000 24.344924 0.668209 3.549276 -1.997751 -2.359725 23.404328 -4.050842 0.346476 -5.411342 -40.867778 -40.285064 16.405889 -21.526516 -3.548657 -14.192405 0.000000 0.000000 0.000000 21.224755 0.978945 2.958414 0.943650 21.828036 -31.038364 1.913693 -3.468985 3.921612 -42.676972 18.439129 -13.415788 -44.854190 42.647339 32.707611 0.000000 0.000000 0.000000 
-9.906659 145.665878 1.544397 0.000000 0.000000 0.000000 -18.725023 4.856141 2.688399 -87.340259 14.260848 22.962181 96.668951 -12.805747 3.322276 -0.734713 6.033627 5.782530 7.099382 -1.065431 -2.240460 0.000000 0.000000 0.000000 -20.065074 0.204966 1.493180 -87.384190 -3.426935 -12.690800 95.080639 -5.261090 3.013131 -10.197922 3.598705 13.881765 -11.789590 -2.183812 -22.599057 0.000000 0.000000 0.000000 -12.320953 0.176139 -1.289826 -1.706158 8.393511 5.447577 18.357009 0.424815 1.340066 0.426207 -0.259218 0.054313 0.000000 0.000000 0.000000 18.312055 2.387014 1.324991 3.353908 10.910524 -3.566324 -2.313980 -44.327043 -6.389744 0.000000 0.000000 0.000000 23.350610 0.208794 3.363701 -1.353754 -3.460050 26.517456 -5.191071 -1.130391 -4.392179 -43.014165 -38.602733 14.370201 -20.391229 -3.930203 -13.290398 0.000000 0.000000 0.000000 19.821434 0.523711 2.749453 1.739049 24.422596 -29.104211 2.251243 -4.736821 3.494471 -46.870585 20.694563 -10.283335 -44.870375 41.972732 31.898220 0.000000 0.000000 0.000000 
-8.590712 145.797379 1.613417 0.000000 0.000000 0.000000 -19.469091 4.025160 2.337028 -88.692438 12.392037 24.936549 97.297452 -13.747375 3.189510 2.945798 3.290382 4.510092 5.837499 -1.178739 -1.778269 0.000000 0.000000 0.000000 -21.321062 0.834061 1.359032 -88.492546 -1.780621 -15.172080 95.596543 -3.895736 2.935416 -5.483277 4.705161 11.283123 -9.730343 -2.605950 -21.499656 0.000000 0.000000 0.000000 -13.218292 0.409305 -1.989695 -1.039207 7.638169 4.651019 18.056532 -0.278029 0.799686 0.571275 0.043643 -0.199604 0.000000 0.000000 0.000000 17.166019 1.892994 0.880637 1.260660 10.848917 -1.410713 -6.175724 -45.630445 -4.765711 0.000000 0.000000 0.000000 22.060054 -0.379593 2.931756 -0.134140 -4.653889 30.830565 -6.157404 -2.232406 -3.159028 -45.619315 -36.224045 10.327646 -19.076594 -7.613293 -12.340132 0.000000 0.000000 0.000000 18.055988 -0.052944 2.253959 2.545374 27.117996 -27.012280 4.341184 -6.137925 3.473666 -51.374719 23.994712 -7.044106 -44.325520 40.902444 30.576885 0.000000 0.000000 0.000000 
-7.041453 146.782486 1.612232 0.000000 0.000000 0.000000 -20.875537 2.772812 1.569361 -88.688777 10.446964 27.118962 97.482837 -14.688259 3.279082 6.831455 0.246828 4.274122 4.064444 -1.372610 -1.174425 0.000000 0.000000 0.000000 -22.597165 0.857576 0.757135 -89.942649 0.939730 -16.815284 95.347856 -1.680660 2.166951 2.199074 5.881058 8.597912 -7.084303 -3.272079 -19.639208 0.000000 0.000000 0.000000 -14.234487 0.052513 -3.030547 -0.188881 6.888068 3.812729 17.990418 -1.027682 0.152540 0.581502 0.165000 -0.283836 0.000000 0.000000 0.000000 16.366491 1.413060 0.306148 -1.342264 10.641103 0.516413 -9.250487 -46.759755 -3.417729 0.000000 0.000000 0.000000 21.152684 -0.938183 2.308042 1.261671 -5.083970 34.435252 -6.769816 -3.734800 -1.449266 -48.402272 -32.569071 5.326939 -16.813655 -13.905287 -10.623955 0.000000 0.000000 0.000000 16.850160 -0.624695 1.599508 3.464387 29.800296 -25.665057 7.984285 -5.935801 3.342219 -55.744138 27.369306 -4.192430 -43.133352 39.345312 28.827404 0.000000 0.000000 0.000000 
-5.354887 149.029480 0.885756 0.000000 0.000000 0.000000 -22.977219 0.969106 0.185184 -86.879030 8.728960 29.061321 96.188168 -15.572334 3.599579 11.438874 -2.777771 4.531086 1.994280 -1.534338 -0.658795 0.000000 0.000000 0.000000 -23.995305 0.064530 -0.402495 -90.437435 3.748571 -17.437799 94.208260 0.651871 1.160560 11.800656 6.331946 6.262199 -5.317631 -3.823547 -17.440418 0.000000 0.000000 0.000000 -16.126698 -0.987939 -3.976386 0.693716 6.389245 3.306719 18.610819 -1.638668 -0.452120 0.506050 0.235993 -0.292704 0.000000 0.000000 0.000000 16.583027 0.993957 -0.319954 -3.504671 10.360410 1.476887 -9.910122 -46.544631 -2.440603 0.000000 0.000000 0.000000 21.407100 -1.362344 1.599121 2.348459 -4.289550 35.852961 -7.279228 -5.172078 0.124654 -50.971905 -28.645815 0.305537 -12.872567 -21.104892 -7.350526 0.000000 0.000000 0.000000 17.112967 -1.091734 0.875196 4.591552 32.532720 -25.330897 10.979887 -4.715829 2.932479 -59.434332 30.180861 -2.453919 -40.997268 36.750311 26.412036 0.000000 0.000000 0.000000 
-3.713148 152.671631 -0.606604 0.000000 0.000000 0.000000 -25.370041 -1.006656 -1.660400 -83.503543 7.768049 30.530146 92.916404 -16.347516 4.044384 17.078734 -5.584958 4.696928 -0.064878 -1.642046 -0.242273 0.000000 0.000000 0.000000 -25.436683 -0.769972 -1.801259 -89.087318 5.592620 -17.444708 91.089998 2.679049 0.209458 21.487937 6.141526 5.342869 -5.108010 -4.119535 -15.286112 0.000000 0.000000 0.000000 -18.859530 -2.492189 -4.792123 1.288387 6.152557 3.335409 20.122226 -2.083752 -0.926432 0.221829 0.322597 -0.219357 0.000000 0.000000 0.000000 17.883626 0.629241 -0.907521 -4.365937 10.140804 1.276718 -7.420207 -45.080813 -1.774829 0.000000 0.000000 0.000000 23.177378 -1.712847 0.784312 3.063527 -2.814781 34.337953 -7.560411 -6.367058 2.297318 -54.080495 -25.797174 -4.743039 -6.457645 -27.008006 -1.722892 0.000000 0.000000 0.000000 19.236758 -1.369405 0.198181 6.162229 35.618764 -25.611661 12.710287 -3.871494 2.972184 -62.715193 31.796901 -1.495962 -38.322156 33.198674 23.632745 0.000000 0.000000 0.000000 
-2.332853 158.022491 -2.640665 0.000000 0.000000 0.000000 -27.805142 -2.789294 -3.350233 -78.234203 8.239735 31.049009 86.944832 -16.823794 4.265458 23.038798 -7.997311 4.604312 -2.050979 -1.725594 0.273884 0.000000 0.000000 0.000000 -27.027383 -1.516883 -2.931992 -85.107196 5.973671 -17.071272 85.072233 3.988906 -0.632712 28.573188 5.475202 5.513971 -4.812033 -4.138607 -13.400905 0.000000 0.000000 0.000000 -22.318753 -4.098600 -5.373735 1.509820 6.018135 3.717757 22.488905 -2.370838 -1.248742 -0.064262 0.475756 -0.122554 0.000000 0.000000 0.000000 20.046933 0.262492 -1.369741 -3.402264 9.948535 0.067511 -1.615150 -42.816120 -1.326284 0.000000 0.000000 0.000000 26.130454 -2.112071 -0.084055 3.590958 -1.275343 30.257769 -7.104697 -7.129688 4.425926 -57.908837 -25.302123 -9.800142 1.546664 -29.347284 5.469732 0.000000 0.000000 0.000000 22.846004 -1.427340 -0.292328 7.941212 39.235581 -26.160217 13.586370 -3.694559 3.795197 -65.803122 32.316760 -1.011906 -36.086898 29.434564 21.286054 0.000000 0.000000 0.000000 
-1.527118 165.068497 -5.119677 0.000000 0.000000 0.000000 -29.441401 -3.989963 -4.004642 -70.721268 10.417650 30.080320 77.270087 -16.810984 4.108921 27.662348 -9.812042 4.356751 -3.802778 -1.901829 1.042679 0.000000 0.000000 0.000000 -27.857688 -1.630101 -3.048793 -77.675821 4.722816 -16.604256 75.086073 4.491250 -1.497088 32.121137 4.441669 6.403394 -3.618261 -3.721294 -12.077000 0.000000 0.000000 0.000000 -25.538164 -5.576070 -5.661889 1.167820 5.862695 4.220696 25.170557 -2.558511 -1.478178 -0.275260 0.756176 -0.109210 0.000000 0.000000 0.000000 22.372643 -0.151081 -1.787191 -1.220450 9.597814 -1.476174 5.856059 -40.343732 -1.195082 0.000000 0.000000 0.000000 29.540213 -2.645457 -0.865752 4.116861 -0.391084 24.830680 -5.470439 -6.584651 5.714637 -62.448399 -27.358581 -15.221386 8.692164 -27.860115 11.626165 0.000000 0.000000 0.000000 26.960080 -1.356940 -0.663654 9.568698 43.051137 -26.254566 14.060879 -3.595390 5.305197 -68.908795 32.192184 -0.255699 -34.994727 27.107296 20.163444 0.000000 0.000000 0.000000 
-1.183983 173.469574 -7.459330 0.000000 0.000000 0.000000 -29.542583 -4.267663 -3.376517 -60.715662 13.932198 27.195797 63.634120 -16.264499 3.578690 29.803848 -11.067253 3.769719 -4.730965 -2.194419 2.181060 0.000000 0.000000 0.000000 -27.759557 -1.625676 -2.291508 -67.558883 2.221122 -15.832409 60.893500 4.697668 -2.526356 33.304101 3.465193 8.238438 -1.167998 -2.820779 -11.452329 0.000000 0.000000 0.000000 -27.220993 -6.311357 -5.241269 0.288525 5.563881 4.449475 27.261546 -2.772063 -1.584303 -0.304581 0.970470 -0.061813 0.000000 0.000000 0.000000 23.997053 -0.570171 -2.161419 1.052835 8.901467 -2.527393 12.315401 -38.799252 -1.534948 0.000000 0.000000 0.000000 32.380872 -3.217093 -1.332942 4.700031 -0.562255 19.540138 -3.158456 -5.423040 5.995650 -67.212558 -30.631937 -21.207804 13.579758 -25.476732 15.094609 0.000000 0.000000 0.000000 30.187831 -1.342089 -0.886618 10.261772 46.211110 -24.755389 14.806426 -2.325659 6.548566 -71.918060 31.603214 1.843646 -35.094366 27.148899 20.539671 0.000000 0.000000 0.000000 
-1.273189 183.135284 -9.513811 0.000000 0.000000 0.000000 -27.900903 -3.732444 -1.791665 -49.353178 17.580050 22.643469 47.405768 -15.502356 2.896828 30.261051 -11.908869 2.516998 -4.543822 -2.464659 3.504325 0.000000 0.000000 0.000000 -26.329001 -1.401137 -0.706206 -56.605674 -0.546811 -14.772159 44.231059 5.590112 -3.895450 33.776426 3.331370 11.651419 1.866752 -1.474100 -11.457042 0.000000 0.000000 0.000000 -26.685693 -6.084149 -3.891492 -0.955428 5.138298 4.138810 27.990752 -2.893176 -1.530024 -0.113642 1.119914 -0.078585 0.000000 0.000000 0.000000 24.280885 -0.849691 -2.458355 2.550449 7.936196 -2.561669 16.126801 -38.741714 -2.189903 0.000000 0.000000 0.000000 33.625431 -3.558295 -1.316803 5.150868 -1.701244 15.444221 -0.712702 -3.714059 4.542423 -71.273072 -34.012635 -27.484572 16.761288 -26.374705 16.298462 0.000000 0.000000 0.000000 31.484088 -1.393925 -0.961393 9.035498 48.106976 -20.509982 14.611516 -0.342264 6.626448 -74.067200 30.681466 5.446296 -35.851929 28.870745 22.141219 0.000000 0.000000 0.000000 
